<?xml version="1.0" standalone="no"?>
<!DOCTYPE svg PUBLIC "-//W3C//DTD SVG 20010904//EN"
 "http://www.w3.org/TR/2001/REC-SVG-20010904/DTD/svg10.dtd">
<svg version="1.0" xmlns="http://www.w3.org/2000/svg"
 width="150.000000pt" height="150.000000pt" viewBox="0 0 150.000000 150.000000"
 preserveAspectRatio="xMidYMid meet">

<g transform="translate(0.000000,150.000000) scale(0.100000,-0.100000)"
fill="#000000" stroke="none">
<path d="M0 750 l0 -750 750 0 750 0 0 750 0 750 -750 0 -750 0 0 -750z m521
383 c73 -45 89 -59 103 -94 9 -23 15 -44 12 -46 -2 -2 -54 25 -115 62 l-111
66 0 40 c0 29 3 38 13 33 6 -4 51 -32 98 -61z m527 -18 c-22 -20 -218 -135
-217 -127 0 4 8 26 17 50 15 37 29 50 112 101 l95 58 3 -35 c2 -20 -2 -40 -10
-47z m-396 -174 c4 -3 14 -22 22 -43 l15 -36 -112 67 c-107 64 -126 83 -113
117 4 11 26 0 93 -43 48 -31 91 -59 95 -62z m354 64 c-5 -14 -207 -138 -213
-131 -2 2 2 18 9 35 10 23 38 47 108 90 84 51 95 56 98 39 2 -11 1 -26 -2 -33z
m-389 -130 c57 -34 86 -58 92 -77 9 -25 4 -23 -90 33 -73 45 -99 66 -99 81 0
23 -5 25 97 -37z m343 37 c0 -11 -29 -35 -82 -67 -46 -27 -86 -49 -90 -47 -5
1 -8 -2 -8 -7 0 -5 -7 -11 -15 -15 -13 -5 -14 -2 -1 22 13 24 165 131 189 132
4 0 7 -8 7 -18z m137 -287 c70 -46 42 -146 -48 -168 -36 -9 -96 10 -114 36
-17 25 -20 79 -4 108 25 47 112 59 166 24z m-922 -55 c15 -38 31 -70 35 -70 4
0 21 31 36 70 16 38 34 70 40 70 6 0 -9 -40 -33 -90 -23 -49 -45 -90 -48 -90
-3 0 -25 41 -49 90 -36 75 -40 90 -26 90 12 0 26 -22 45 -70z m275 62 c0 -4
-16 -6 -35 -4 -34 4 -35 3 -35 -32 0 -33 2 -36 30 -36 17 0 30 -4 30 -8 0 -5
-13 -7 -30 -4 -29 4 -30 3 -30 -38 l0 -42 39 4 c22 2 37 0 35 -4 -3 -5 -26 -8
-52 -8 l-47 0 0 90 0 90 48 0 c26 0 47 -4 47 -8z m90 -65 c0 -82 9 -97 57 -97
47 0 66 33 61 110 -2 43 1 60 10 60 16 0 16 -107 -1 -140 -19 -38 -60 -54
-102 -40 -45 15 -49 22 -55 108 -4 64 -3 72 13 72 15 0 17 -10 17 -73z m243
43 c23 -38 34 -38 55 0 9 16 23 30 30 30 7 0 -1 -17 -19 -40 -31 -39 -32 -40
-14 -67 10 -15 27 -38 38 -50 20 -22 20 -23 1 -23 -12 0 -29 16 -44 40 l-25
41 -22 -28 c-13 -15 -23 -34 -23 -40 0 -7 -7 -13 -15 -13 -12 0 -9 11 15 44
16 25 30 48 30 51 0 4 -14 25 -31 46 -27 34 -28 39 -12 39 10 0 27 -13 36 -30z
m521 7 c8 -13 7 -25 -7 -49 l-19 -33 41 -37 c30 -28 36 -38 22 -38 -10 0 -34
18 -55 40 -20 22 -44 40 -52 40 -13 0 -15 -9 -12 -40 3 -33 0 -40 -14 -40 -16
0 -18 10 -18 91 l0 90 51 -3 c37 -2 55 -8 63 -21z m-917 -239 c-3 -7 -5 -2 -5
12 0 14 2 19 5 13 2 -7 2 -19 0 -25z m61 7 c-3 -3 -9 2 -12 12 -6 14 -5 15 5
6 7 -7 10 -15 7 -18z m39 3 c-3 -8 -6 -5 -6 6 -1 11 2 17 5 13 3 -3 4 -12 1
-19z m90 0 c-3 -8 -6 -5 -6 6 -1 11 2 17 5 13 3 -3 4 -12 1 -19z m70 -10 c-3
-7 -5 -2 -5 12 0 14 2 19 5 13 2 -7 2 -19 0 -25z m40 0 c-3 -7 -5 -2 -5 12 0
14 2 19 5 13 2 -7 2 -19 0 -25z m210 0 c-3 -7 -5 -2 -5 12 0 14 2 19 5 13 2
-7 2 -19 0 -25z m71 7 c-3 -3 -9 2 -12 12 -6 14 -5 15 5 6 7 -7 10 -15 7 -18z
m29 -7 c-3 -7 -5 -2 -5 12 0 14 2 19 5 13 2 -7 2 -19 0 -25z m40 0 c-3 -7 -5
-2 -5 12 0 14 2 19 5 13 2 -7 2 -19 0 -25z m40 0 c-3 -7 -5 -2 -5 12 0 14 2
19 5 13 2 -7 2 -19 0 -25z"/>
<path d="M983 628 c-28 -13 -47 -60 -39 -93 11 -41 41 -65 85 -65 72 0 106 80
59 134 -26 30 -73 40 -105 24z"/>
<path d="M1220 590 c0 -38 2 -40 29 -40 21 0 32 6 36 20 9 29 -12 60 -40 60
-22 0 -25 -4 -25 -40z"/>
</g>
</svg>
